<?xml version="1.0" encoding="UTF-8"?>
<svg version="1.1" xmlns="http://www.w3.org/2000/svg" width="1200" height="1200">
<path d="M0 0 C5.92706601 3.58173237 10.34321843 8.97738542 12.5625 15.5 C12.81730902 18.18566591 12.81730902 18.18566591 12.82421303 21.14403248 C12.83167852 22.2756411 12.83914401 23.40724971 12.84683573 24.5731495 C12.844901 25.81147065 12.84296626 27.04979179 12.8409729 28.32563782 C12.8467653 29.6448138 12.8525577 30.96398979 12.85852563 32.3231408 C12.87433032 35.98316638 12.87775657 39.64311521 12.87917423 43.3031708 C12.88286746 47.25065398 12.89802256 51.19809501 12.91178894 55.14555359 C12.93406801 61.98427705 12.9490774 68.82298554 12.95915604 75.66173744 C12.97373856 85.54943199 12.99927419 95.43707435 13.02748732 105.32473829 C13.07296307 121.36662486 13.10957465 137.40851895 13.140625 153.45043945 C13.17080733 169.03411172 13.20515615 184.61776562 13.24511719 200.20141602 C13.24757874 201.16191497 13.25004028 202.12241393 13.25257643 203.11201892 C13.26495097 207.93053687 13.27740751 212.7490546 13.28990483 217.56757224 C13.39348435 257.54502269 13.48268375 297.52249545 13.5625 337.5 C13.86953857 337.02265915 14.17657715 336.5453183 14.49291992 336.05351257 C15.91059485 333.85120782 17.33028544 331.65020916 18.75 329.44921875 C19.23275391 328.69862183 19.71550781 327.9480249 20.21289062 327.17468262 C29.79570429 312.33016464 40.29709922 297.96844573 52.296875 284.9765625 C54.16423758 282.93534203 55.97558203 280.86467522 57.78125 278.76953125 C61.78146038 274.18778307 66.01044203 269.85997839 70.3125 265.5625 C71.10672363 264.76908203 71.90094727 263.97566406 72.71923828 263.15820312 C78.40971868 257.52681752 84.25088059 252.4251961 90.5625 247.5 C92.41940747 245.91988192 94.27341476 244.33635134 96.125 242.75 C119.01569419 223.69408705 144.84686869 208.42678263 171.59130859 195.45898438 C173.54192576 194.51000937 175.48373476 193.54449282 177.42578125 192.578125 C249.39084614 157.23512411 335.83494508 142.711525 420.4375 142.296875 C421.74075729 142.29263393 421.74075729 142.29263393 423.07034302 142.28830719 C427.68996462 142.27344208 432.30955615 142.26413908 436.92919922 142.25976562 C440.64186712 142.25543243 444.35429586 142.24172492 448.06689453 142.21875 C521.01048648 141.77700915 594.20353901 150.09710925 663.5625 173.5 C664.63741699 173.86061523 665.71233398 174.22123047 666.81982422 174.59277344 C731.57836702 196.53713579 795.57222112 234.10930883 839.5625 287.5 C840.00883789 288.03254395 840.45517578 288.56508789 840.91503906 289.11376953 C847.11810492 296.52221736 853.10563765 304.04768991 858.6875 311.9375 C859.33174927 312.84616821 859.33174927 312.84616821 859.98901367 313.77319336 C863.53921126 318.86769109 866.89733073 324.08521611 870.26513672 329.30102539 C870.77515732 330.09011543 871.28517792 330.87920547 871.81065369 331.69220734 C873.06167332 333.62787757 874.31227677 335.56381533 875.5625 337.5 C875.56309709 336.82169553 875.56369418 336.14339107 875.56430936 335.44453192 C875.60020134 295.24491623 875.65683729 255.04537766 875.74042095 214.8458316 C875.75043844 210.01929169 875.76028256 205.19275143 875.77001953 200.36621094 C875.7719609 199.40533146 875.77390228 198.44445199 875.77590248 197.45445496 C875.80692568 181.89493375 875.82390403 166.3354273 875.83569422 150.77588099 C875.84810411 134.81098507 875.87560187 118.84616657 875.91711307 102.88131952 C875.94225308 93.02971432 875.95561691 83.17823752 875.95392957 73.32659978 C875.95389982 66.571452 875.96852225 59.81643505 875.99466428 53.06133825 C876.0093156 49.16365251 876.01750868 45.26623505 876.00830269 41.36852646 C876.00001179 37.79781896 876.01018079 34.22765037 876.03483662 30.65702277 C876.04320195 28.75815831 876.03198607 26.8592385 876.02000165 24.96039343 C876.10056133 16.95493293 877.10245068 11.44844594 882.52734375 5.2578125 C883.17832031 4.71898438 883.82929687 4.18015625 884.5 3.625 C885.14839844 3.07070312 885.79679687 2.51640625 886.46484375 1.9453125 C892.96607557 -2.53412097 899.93390917 -2.17463728 907.5625 -1.5 C914.22209333 0.18085583 918.74797447 4.96378322 922.5625 10.5 C924.23763928 14.08235237 924.81298973 16.88814222 924.81549966 20.83120739 C924.82101915 21.89543748 924.82653864 22.95966756 924.83222538 24.05614704 C924.82811475 25.2215878 924.82400411 26.38702857 924.81976891 27.58778572 C924.82327498 28.83388239 924.82678105 30.07997906 924.83039337 31.36383623 C924.83986807 34.83547064 924.83684533 38.30700035 924.83183783 41.77863997 C924.82857685 45.55089776 924.83684908 49.32313291 924.84365618 53.09538352 C924.85397571 59.7113879 924.85679659 66.32736301 924.85474396 72.94337463 C924.85169889 82.78219706 924.8600072 92.620987 924.87049321 102.45980312 C924.88985844 121.05630978 924.89546245 139.65280544 924.89660732 158.249321 C924.89752591 172.61450769 924.90164001 186.97969005 924.90800858 201.34487534 C924.90980366 205.47792589 924.91158328 209.61097645 924.91335833 213.74402702 C924.91402148 215.28523807 924.91402148 215.28523807 924.91469802 216.85758469 C924.92701139 245.77038261 924.93489868 274.68317903 924.93401146 303.59597969 C924.9339803 304.68662133 924.93394914 305.77726297 924.93391704 306.90095436 C924.93375083 312.42890231 924.93355274 317.95685026 924.93334763 323.48479821 C924.93328779 325.13162575 924.93328779 325.13162575 924.93322675 326.81172253 C924.93314587 329.03191849 924.93306228 331.25211445 924.93297596 333.47231041 C924.93175124 367.99278761 924.94674715 402.51322547 924.97412109 437.03369141 C925.00485888 475.81224835 925.02205243 514.59077946 925.02019465 553.36934936 C925.02004539 557.50680089 925.01994798 561.64425242 925.01988602 565.78170395 C925.01985105 567.30983122 925.01985105 567.30983122 925.01981538 568.86882975 C925.01975389 585.24940696 925.03251548 601.62994998 925.04975055 618.01051703 C925.06672552 634.48514192 925.06866641 650.95971693 925.0555319 667.43434574 C925.04815405 677.21517317 925.05176568 686.99584887 925.07141658 696.77666015 C925.0834497 703.32035976 925.08078862 709.86394991 925.06647559 716.40764458 C925.05874033 720.12951855 925.05707959 723.85109974 925.07339029 727.57295264 C925.1515777 746.6403601 924.06968577 764.31652309 917.4375 782.375 C917.14528564 783.18614258 916.85307129 783.99728516 916.55200195 784.83300781 C908.89484941 805.46011669 898.25534128 824.29676987 884.5625 841.5 C883.81355469 842.45390625 883.06460938 843.4078125 882.29296875 844.390625 C876.298746 851.75360727 869.75208794 858.51623109 863.0625 865.25 C862.19657227 866.12519287 861.33064453 867.00038574 860.43847656 867.90209961 C854.45585974 873.85600798 848.195025 879.28324015 841.5625 884.5 C840.82161133 885.08523438 840.08072266 885.67046875 839.31738281 886.2734375 C770.30170372 940.02695668 681.09201176 962.62503549 536.625 980.1875 C535.81821808 980.24843842 535.01143616 980.30937683 534.1802063 980.37216187 C513.96113008 981.87851867 493.79485557 982.66573579 473.51953125 982.703125 C472.45381079 982.70595238 471.38809032 982.70877975 470.2900753 982.71169281 C464.62380111 982.72656664 458.95755149 982.73586425 453.29125977 982.74023438 C448.73225683 982.74456871 444.17344853 982.75827968 439.61450195 982.78125 C354.76515942 983.1996534 267.95311258 976.50992453 171.5625 947.5 C170.33660156 947.10554688 169.11070312 946.71109375 167.84765625 946.3046875 C151.5960692 941.01823211 135.86775029 934.96655183 120.35644531 927.79199219 C117.75225764 926.58774882 115.13936243 925.40502888 112.5234375 924.2265625 C70.24753779 904.9535986 27.50609017 874.86566963 0.5625 836.5 C-0.14495361 835.5104834 -0.14495361 835.5104834 -0.86669922 834.50097656 C-17.94712679 810.45200064 -35.54180823 778.46452396 -35.56630117 748.03193676 C-35.57120946 746.42799299 -35.57120946 746.42799299 -35.57621691 744.7916463 C-35.57473328 743.62568823 -35.57324966 742.45973015 -35.57172108 741.25844002 C-35.57407331 740.00789394 -35.57642554 738.75734787 -35.57884905 737.46890646 C-35.58524226 733.98955781 -35.58541122 730.51023227 -35.58457164 727.03087887 C-35.58474127 723.24865964 -35.59064885 719.46644865 -35.5958125 715.68423355 C-35.60513737 708.17912104 -35.60906035 700.67401443 -35.61133147 693.16889685 C-35.61429374 684.18095364 -35.62299116 675.19301825 -35.63174575 666.20507914 C-35.65258774 644.48307324 -35.66305868 622.76106599 -35.67187535 601.03905242 C-35.67608131 590.76615916 -35.6813033 580.49326649 -35.68655988 570.22037372 C-35.70444786 535.0642355 -35.71944542 499.90809712 -35.72688007 464.75195503 C-35.72735483 462.54501172 -35.72783072 460.3380684 -35.72830774 458.13112509 C-35.7286623 456.48944437 -35.7286623 456.48944437 -35.72902403 454.81459839 C-35.73022524 449.26946533 -35.73144068 443.72433227 -35.73266602 438.17919922 C-35.73290617 437.0787487 -35.73314632 435.97829818 -35.73339374 434.84450068 C-35.74129086 399.14616596 -35.76473234 363.44786441 -35.79722196 327.74954418 C-35.83149945 290.01803054 -35.85122916 252.28653633 -35.85452431 214.55500686 C-35.85494187 210.41524052 -35.85542143 206.27547419 -35.85594749 202.13570786 C-35.85607069 201.11636119 -35.85619388 200.09701452 -35.8563208 199.04677856 C-35.85865514 182.6259581 -35.87432781 166.20517612 -35.89478934 149.78436939 C-35.91501849 133.28877615 -35.9205384 116.79322926 -35.91101871 100.29762591 C-35.9057928 90.49225979 -35.91173259 80.6870477 -35.93355338 70.88170367 C-35.9470227 64.33572771 -35.94601885 57.78985823 -35.93315142 51.24388131 C-35.92622902 47.51169832 -35.92567255 43.77981064 -35.94271151 40.04765357 C-35.96090803 36.02928979 -35.94824126 32.01161605 -35.93248463 27.99324226 C-35.94270683 26.83196652 -35.95292904 25.67069078 -35.96346101 24.47422487 C-35.89636471 16.67772459 -34.75403145 11.28467009 -29.47265625 5.2578125 C-28.82167969 4.71898438 -28.17070313 4.18015625 -27.5 3.625 C-26.85160156 3.07070312 -26.20320312 2.51640625 -25.53515625 1.9453125 C-18.47077988 -2.92213491 -7.84396301 -3.47595223 0 0 Z M234.125 445.1875 C233.16891846 445.36120117 232.21283691 445.53490234 231.2277832 445.71386719 C203.54073685 450.99456324 176.46203192 462.58492464 154.5625 480.5 C154.04381348 480.91862305 153.52512695 481.33724609 152.99072266 481.76855469 C118.59118849 509.61432222 96.05174858 546.97664379 87.5625 590.5 C87.37558594 591.44987793 87.18867188 592.39975586 86.99609375 593.37841797 C85.32367351 602.87686902 85.16396022 612.26054628 85.1875 621.875 C85.18804382 622.71182312 85.18858765 623.54864624 85.18914795 624.41082764 C85.2299819 638.10914933 86.16109548 651.17653802 89.5625 664.5 C89.88395996 665.78463135 89.88395996 665.78463135 90.21191406 667.09521484 C96.28162391 690.65399403 107.12430046 713.62822096 122.5625 732.5 C123.19043457 733.27802979 123.19043457 733.27802979 123.83105469 734.07177734 C154.19820214 771.58612222 197.2430718 796.28616647 245.5625 801.5 C262.64710536 802.88264829 279.79837669 802.64401965 296.92470121 802.63072467 C301.29014455 802.62843872 305.65558406 802.63196591 310.02102661 802.63470459 C318.54794762 802.6391274 327.07485978 802.63820142 335.60178113 802.63529195 C342.53814087 802.63302413 349.47449815 802.63273134 356.41085815 802.63381577 C357.89746316 802.63404561 357.89746316 802.63404561 359.41410059 802.63428011 C361.42808255 802.63459987 363.4420645 802.63492408 365.45604646 802.6352527 C384.29588925 802.63809727 403.13572715 802.63483654 421.97556913 802.62945233 C438.10513447 802.62498523 454.2346926 802.62576145 470.36425781 802.63037109 C489.14140345 802.63573495 507.91854481 802.63782267 526.69569111 802.63475883 C528.70184135 802.63444032 530.7079916 802.63412594 532.71414185 802.63381577 C533.70094325 802.63366149 534.68774464 802.63350721 535.70444912 802.63334826 C542.62424602 802.63248854 549.54404019 802.63393421 556.46383667 802.63629532 C564.90851103 802.63911368 573.35317611 802.63831238 581.79784942 802.63301457 C586.09795628 802.63040488 590.39804773 802.6293256 594.69815445 802.63266373 C624.97692725 803.06576477 624.97692725 803.06576477 655 799.8125 C655.95608154 799.63879883 656.91216309 799.46509766 657.8972168 799.28613281 C685.58426315 794.00543676 712.66296808 782.41507536 734.5625 764.5 C735.08118652 764.08137695 735.59987305 763.66275391 736.13427734 763.23144531 C770.53381151 735.38567778 793.07325142 698.02335621 801.5625 654.5 C801.74941406 653.55012207 801.93632813 652.60024414 802.12890625 651.62158203 C803.80132649 642.12313098 803.96103978 632.73945372 803.9375 623.125 C803.93695618 622.28817688 803.93641235 621.45135376 803.93585205 620.58917236 C803.8950181 606.89085067 802.96390452 593.82346198 799.5625 580.5 C799.34819336 579.6435791 799.13388672 578.7871582 798.91308594 577.90478516 C792.84337609 554.34600597 782.00069954 531.37177904 766.5625 512.5 C766.14387695 511.98131348 765.72525391 511.46262695 765.29394531 510.92822266 C734.92679786 473.41387778 691.8819282 448.71383353 643.5625 443.5 C626.47789464 442.11735171 609.32662331 442.35598035 592.20029879 442.36927533 C587.83485545 442.37156128 583.46941594 442.36803409 579.10397339 442.36529541 C570.57705238 442.3608726 562.05014022 442.36179858 553.52321887 442.36470805 C546.58685913 442.36697587 539.65050185 442.36726866 532.71414185 442.36618423 C531.22753684 442.36595439 531.22753684 442.36595439 529.71089941 442.36571989 C527.69691745 442.36540013 525.6829355 442.36507592 523.66895354 442.3647473 C504.82911075 442.36190273 485.98927285 442.36516346 467.14943087 442.37054767 C451.01986553 442.37501477 434.8903074 442.37423855 418.76074219 442.36962891 C399.98359655 442.36426505 381.20645519 442.36217733 362.42930889 442.36524117 C360.42315865 442.36555968 358.4170084 442.36587406 356.41085815 442.36618423 C355.42405675 442.36633851 354.43725536 442.36649279 353.42055088 442.36665174 C346.50075398 442.36751146 339.58095981 442.36606579 332.66116333 442.36370468 C324.21648897 442.36088632 315.77182389 442.36168762 307.32715058 442.36698543 C303.02704372 442.36959512 298.72695227 442.3706744 294.42684555 442.36733627 C264.14807275 441.93423523 264.14807275 441.93423523 234.125 445.1875 Z " fill="#000000" transform="translate(155.4375,97.5)"/>
<path d="M0 0 C6.53978769 14.58354922 13.05589333 29.16066328 19 44 C16.51630516 45.65579656 14.36307082 46.7973534 11.65112305 47.97338867 C10.76254105 48.36032898 9.87395905 48.74726929 8.95845032 49.14593506 C7.9860289 49.56570618 7.01360748 49.98547729 6.01171875 50.41796875 C4.98568039 50.86344055 3.95964203 51.30891235 2.9025116 51.7678833 C-0.50111461 53.24429106 -3.90671777 54.71607325 -7.3125 56.1875 C-9.6867081 57.21552559 -12.06089398 58.24360249 -14.43505859 59.27172852 C-46.21577195 73.02076079 -78.07545063 86.58845929 -110 100 C-111.55713017 97.66430475 -112.66952988 95.67572048 -113.78759766 93.14282227 C-114.12779938 92.3751503 -114.4680011 91.60747833 -114.81851196 90.81654358 C-115.36080948 89.5789756 -115.36080948 89.5789756 -115.9140625 88.31640625 C-116.28856537 87.46449203 -116.66306824 86.61257782 -117.04891968 85.73484802 C-117.83889231 83.93419966 -118.62723371 82.13283489 -119.4140625 80.33081055 C-120.62024848 77.57336239 -121.83725941 74.82085899 -123.0546875 72.06835938 C-123.82098488 70.31800255 -124.58663184 68.56736079 -125.3515625 66.81640625 C-125.71714264 65.99338516 -126.08272278 65.17036407 -126.4593811 64.32240295 C-126.7932785 63.55157883 -127.1271759 62.7807547 -127.47119141 61.98657227 C-127.76716217 61.31167252 -128.06313293 60.63677277 -128.36807251 59.94142151 C-129 58 -129 58 -129 54 C-109.15637024 44.98641509 -89.10383114 36.46977207 -69.04101562 27.95849609 C-57.62815264 23.11442311 -46.22723269 18.24695684 -34.86328125 13.2890625 C-33.32442009 12.61886833 -33.32442009 12.61886833 -31.75447083 11.93513489 C-26.91714575 9.82800575 -22.08308962 7.7139226 -17.25415039 5.58764648 C-15.54196749 4.84066653 -13.82965437 4.09398497 -12.1171875 3.34765625 C-11.34687698 3.00509796 -10.57656647 2.66253967 -9.78291321 2.30960083 C-6.23554368 0.77204175 -3.92700405 0 0 0 Z " fill="#000000" transform="translate(825,660)"/>
<path d="M0 0 C6.11135138 0.57539023 11.30709688 3.07664403 16.8671875 5.50390625 C17.95059921 5.9704361 19.03401093 6.43696594 20.1502533 6.91763306 C23.11083544 8.19381354 26.06883235 9.47577286 29.02582169 10.76025009 C32.13190137 12.10779571 35.24120797 13.44784985 38.3503418 14.78833008 C42.23872901 16.4652766 46.126818 18.14289954 50.01353455 19.82371521 C59.25956643 23.82188743 68.51515319 27.79722673 77.77734375 31.7578125 C79.05963441 32.3062825 80.34192203 32.85475963 81.62420654 33.40324402 C86.55919327 35.51393592 91.49440306 37.62410569 96.42987061 39.7336731 C99.8352704 41.18974319 103.23997541 42.64742665 106.64453125 44.10546875 C107.63500961 44.52849274 108.62548798 44.95151672 109.64598083 45.38735962 C116.13871817 48.16975796 122.58073798 51.0521262 129 54 C128.3965396 59.35677344 126.59487756 63.73441899 124.4375 68.609375 C124.0861499 69.41739563 123.7347998 70.22541626 123.37280273 71.05792236 C122.25483128 73.62475057 121.12750867 76.18734899 120 78.75 C119.24158094 80.48801669 118.48376199 82.22629539 117.7265625 83.96484375 C112.31430288 96.37139423 112.31430288 96.37139423 111 99 C104.88864862 98.42460977 99.69290312 95.92335597 94.1328125 93.49609375 C93.04940079 93.0295639 91.96598907 92.56303406 90.8497467 92.08236694 C87.88916456 90.80618646 84.93116765 89.52422714 81.97417831 88.23974991 C78.86809863 86.89220429 75.75879203 85.55215015 72.6496582 84.21166992 C68.76127099 82.5347234 64.873182 80.85710046 60.98646545 79.17628479 C51.74043357 75.17811257 42.48484681 71.20277327 33.22265625 67.2421875 C31.94036559 66.6937175 30.65807797 66.14524037 29.37579346 65.59675598 C24.44080673 63.48606408 19.50559694 61.37589431 14.57012939 59.2663269 C11.1647296 57.81025681 7.76002459 56.35257335 4.35546875 54.89453125 C3.36499039 54.47150726 2.37451202 54.04848328 1.35401917 53.61264038 C-5.13871817 50.83024204 -11.58073798 47.9478738 -18 45 C-17.3965396 39.64322656 -15.59487756 35.26558101 -13.4375 30.390625 C-12.91047485 29.17859406 -12.91047485 29.17859406 -12.37280273 27.94207764 C-11.25483128 25.37524943 -10.12750867 22.81265101 -9 20.25 C-8.24158094 18.51198331 -7.48376199 16.77370461 -6.7265625 15.03515625 C-1.31430288 2.62860577 -1.31430288 2.62860577 0 0 Z " fill="#000000" transform="translate(378,660)"/>
</svg>
